<svg width="29" height="29" viewBox="0 0 29 29" fill="none" xmlns="http://www.w3.org/2000/svg">
<path d="M7.79114 9.62971C8.17098 6.21122 11.0605 3.625 14.5 3.625V3.625C17.9395 3.625 20.829 6.21122 21.2089 9.62971L21.5131 12.3681C21.557 12.7627 21.5789 12.96 21.6101 13.1539C21.7511 14.0288 22.0365 14.8741 22.4545 15.6555C22.5472 15.8287 22.6494 15.9989 22.8536 16.3394L23.5576 17.5127C24.3634 18.8556 24.7662 19.5271 24.479 20.0344C24.1918 20.5417 23.4087 20.5417 21.8426 20.5417H7.15738C5.59127 20.5417 4.80822 20.5417 4.52099 20.0344C4.23376 19.5271 4.63664 18.8556 5.4424 17.5127L6.14637 16.3394C6.35064 15.9989 6.45278 15.8287 6.54548 15.6555C6.96354 14.8741 7.24888 14.0288 7.38986 13.1539C7.42112 12.96 7.44304 12.7627 7.48688 12.3681L7.79114 9.62971Z" stroke="white" stroke-width="2"/>
<path d="M10.9985 21.3448C11.2051 22.501 11.6602 23.5227 12.2932 24.2514C12.9263 24.98 13.702 25.375 14.5 25.375C15.298 25.375 16.0737 24.98 16.7068 24.2514C17.3398 23.5227 17.7949 22.501 18.0015 21.3448" stroke="white" stroke-width="2" stroke-linecap="round"/>
</svg>
