<svg width="22" height="22" viewBox="0 0 22 22" fill="none" xmlns="http://www.w3.org/2000/svg">
<path d="M11.0001 21.8333C5.017 21.8333 0.166748 16.9831 0.166748 11C0.166748 5.0169 5.017 0.166656 11.0001 0.166656C16.9832 0.166656 21.8334 5.0169 21.8334 11C21.8268 16.9804 16.9804 21.8268 11.0001 21.8333ZM11.0001 2.33332C6.23927 2.33453 2.37075 6.17576 2.33584 10.9364C2.30094 15.6971 6.11271 19.5947 10.873 19.6657C15.6333 19.7367 19.5596 15.9546 19.6667 11.195V13.1266V11C19.6614 6.21575 15.7843 2.3387 11.0001 2.33332ZM12.5709 16.3083L7.20842 10.9458L12.5709 5.58332L14.1027 7.11516L10.2721 10.9458L14.1017 14.7765L12.572 16.3083H12.5709Z" fill="#88F556"/>
</svg>
