<svg width="19" height="19" viewBox="0 0 19 19" fill="none" xmlns="http://www.w3.org/2000/svg">
<path d="M3.90215 15.0979C5.00932 16.2051 6.41993 16.9591 7.95562 17.2646C9.4913 17.57 11.0831 17.4133 12.5297 16.8141C13.9762 16.2149 15.2127 15.2002 16.0825 13.8983C16.9524 12.5964 17.4167 11.0658 17.4167 9.50001C17.4167 7.93424 16.9524 6.40364 16.0825 5.10175C15.2127 3.79986 13.9762 2.78516 12.5297 2.18596C11.0831 1.58677 9.4913 1.42999 7.95562 1.73546C6.41993 2.04093 5.00932 2.79492 3.90215 3.90208" stroke="black" stroke-width="2"/>
<path d="M11.875 9.49999L12.6559 8.87529L13.1556 9.49999L12.6559 10.1247L11.875 9.49999ZM2.375 10.5C1.82271 10.5 1.375 10.0523 1.375 9.49999C1.375 8.9477 1.82271 8.49999 2.375 8.49999V10.5ZM9.4892 4.91696L12.6559 8.87529L11.0941 10.1247L7.92746 6.16635L9.4892 4.91696ZM12.6559 10.1247L9.4892 14.083L7.92746 12.8336L11.0941 8.87529L12.6559 10.1247ZM11.875 10.5H2.375V8.49999H11.875V10.5Z" fill="black"/>
</svg>
