<svg width="29" height="29" viewBox="0 0 29 29" fill="none" xmlns="http://www.w3.org/2000/svg">
<path d="M12.257 8.00832C13.2075 5.63878 13.6827 4.45401 14.5 4.45401C15.3172 4.45401 15.7924 5.63878 16.7429 8.00832L16.7872 8.11866C17.3242 9.45733 17.5926 10.1267 18.1398 10.5335C18.687 10.9403 19.4053 11.0047 20.8419 11.1333L21.1017 11.1566C23.4528 11.3672 24.6284 11.4724 24.88 12.2204C25.1315 12.9683 24.2585 13.7626 22.5124 15.3512L21.9296 15.8814C21.0457 16.6855 20.6038 17.0876 20.3978 17.6146C20.3594 17.7129 20.3274 17.8136 20.3022 17.9161C20.1668 18.4655 20.2962 19.0488 20.555 20.2154L20.6356 20.5785C21.1113 22.7225 21.3491 23.7945 20.9338 24.2569C20.7787 24.4297 20.577 24.5541 20.3529 24.6152C19.7534 24.7788 18.9021 24.0852 17.1996 22.6979C16.0817 21.787 15.5228 21.3315 14.881 21.229C14.6286 21.1887 14.3714 21.1887 14.1189 21.229C13.4772 21.3315 12.9182 21.787 11.8003 22.6979C10.0978 24.0852 9.24658 24.7788 8.647 24.6152C8.42296 24.5541 8.22127 24.4297 8.0661 24.2569C7.65082 23.7945 7.88866 22.7225 8.36435 20.5785L8.44492 20.2154C8.70375 19.0488 8.83317 18.4655 8.69777 17.9161C8.67251 17.8136 8.64057 17.7129 8.60215 17.6146C8.39616 17.0876 7.9542 16.6855 7.0703 15.8814L6.48754 15.3512C4.74145 13.7626 3.8684 12.9683 4.11995 12.2204C4.3715 11.4724 5.5471 11.3672 7.89829 11.1566L8.158 11.1333C9.59461 11.0047 10.3129 10.9403 10.8601 10.5335C11.4073 10.1267 11.6758 9.45733 12.2128 8.11866L12.257 8.00832Z" stroke="white" stroke-width="2"/>
</svg>
