<svg width="24" height="24" viewBox="0 0 24 24" fill="none" xmlns="http://www.w3.org/2000/svg">
<path d="M9.60203 5.2282C10.5116 2.96056 10.9664 1.82674 11.7053 1.6696C11.8996 1.62828 12.1004 1.62828 12.2947 1.6696C13.0336 1.82674 13.4884 2.96056 14.398 5.2282C14.9153 6.51777 15.1739 7.16255 15.6579 7.6011C15.7936 7.72411 15.941 7.83366 16.0979 7.92823C16.6572 8.26536 17.3555 8.32789 18.752 8.45296C21.1161 8.66469 22.2982 8.77055 22.6591 9.44452C22.7339 9.5841 22.7847 9.73523 22.8095 9.89162C22.9292 10.6467 22.0602 11.4373 20.3222 13.0185L19.8396 13.4576C19.0271 14.1968 18.6208 14.5664 18.3858 15.0277C18.2449 15.3044 18.1504 15.6024 18.1061 15.9097C18.0323 16.4221 18.1512 16.9583 18.3892 18.0307L18.4742 18.4139C18.9009 20.3371 19.1142 21.2986 18.8479 21.7713C18.6087 22.1959 18.168 22.4677 17.6812 22.4909C17.1393 22.5168 16.3758 21.8946 14.8486 20.6502C13.8425 19.8303 13.3395 19.4204 12.781 19.2603C12.2706 19.114 11.7294 19.114 11.2191 19.2603C10.6606 19.4204 10.1576 19.8304 9.15142 20.6502C7.62429 21.8946 6.86073 22.5168 6.31882 22.4909C5.83206 22.4677 5.39141 22.1959 5.15218 21.7713C4.88586 21.2986 5.0992 20.3371 5.5259 18.4139L5.61091 18.0307C5.84884 16.9583 5.96781 16.4221 5.89398 15.9097C5.8497 15.6024 5.75518 15.3044 5.61422 15.0277C5.37924 14.5664 4.97298 14.1968 4.16045 13.4576L3.67783 13.0185C1.93988 11.4373 1.07091 10.6467 1.19058 9.89162C1.21536 9.73523 1.26619 9.5841 1.34095 9.44452C1.70192 8.77055 2.88396 8.66469 5.24804 8.45296C6.64456 8.32789 7.34283 8.26536 7.90218 7.92823C8.05908 7.83366 8.20643 7.72411 8.34217 7.6011C8.82612 7.16255 9.08476 6.51777 9.60203 5.2282Z" fill="white" stroke="white" stroke-width="2"/>
</svg>
