<svg width="22" height="24" viewBox="0 0 22 24" fill="none" xmlns="http://www.w3.org/2000/svg">
<path d="M10.5 23.375C5.16129 23.375 0.833374 19.0471 0.833374 13.7083C0.833374 8.36958 5.16129 4.04166 10.5 4.04166C15.8388 4.04166 20.1667 8.36958 20.1667 13.7083C20.1607 19.0446 15.8363 23.369 10.5 23.375ZM10.5 6.45833C6.49598 6.45833 3.25004 9.70427 3.25004 13.7083C3.25004 17.7124 6.49598 20.9583 10.5 20.9583C14.5041 20.9583 17.75 17.7124 17.75 13.7083C17.7454 9.7062 14.5022 6.46299 10.5 6.45833ZM11.7084 14.9167H9.29171V8.875H11.7084V14.9167ZM19.3124 7.31262L16.8958 4.89596L18.6043 3.18737L21.021 5.60404L19.3136 7.31141L19.3124 7.31262ZM14.125 2.83333H6.87504V0.416664H14.125V2.83333Z" fill="#E59730"/>
</svg>
